<svg fill="none" height="109" viewBox="0 0 341 109" width="341" xmlns="http://www.w3.org/2000/svg"><path d="m37.2 44.9c-3.3333-1.7333-6.6-2.6-9.8-2.6-1.6667 0-3.0333.3333-4.1 1-1 .6667-1.5 1.5667-1.5 2.7 0 .6.0667 1.1.2 1.5.2.3333.5667.6667 1.1 1 .6.3333 1.4333.6333 2.5.9 1.1333.2667 2.6.6 4.4 1 5 1 8.7333 2.8 11.2 5.4 2.4667 2.5333 3.7 5.8 3.7 9.8 0 3-.6 5.7-1.8 8.1s-2.8667 4.4333-5 6.1c-2.1333 1.6-4.7 2.8333-7.7 3.7-3 .9333-6.3 1.4-9.9 1.4-6.9333 0-13.76667-1.9667-20.49999988-5.9l6.59999988-12.8c5.0667 3.4667 9.8667 5.2 14.4 5.2 1.6667 0 3.0333-.3667 4.1-1.1s1.6-1.6667 1.6-2.8c0-.6667-.1-1.2-.3-1.6-.1333-.4667-.4667-.8667-1-1.2-.5333-.4-1.3333-.7333-2.4-1-1-.3333-2.3333-.6667-4-1-5.6-1.1333-9.53333-2.8-11.8-5-2.2-2.2667-3.3-5.3667-3.3-9.3 0-2.8667.53333-5.4333 1.6-7.7 1.06667-2.3333 2.6-4.3 4.6-5.9s4.4-2.8333 7.2-3.7c2.8667-.8667 6.0333-1.3 9.5-1.3 5.6667 0 11.1667 1.1 16.5 3.3zm34.9789-13.2v51.3h-18.1v-51.3zm-19.3-19.7c0-1.4.2667-2.7.8-3.9.5333-1.26667 1.2667-2.36667 2.2-3.30001.9333-.93333 2-1.66666 3.2-2.19999 1.2667-.53334 2.6-.8 4-.8s2.7.26666 3.9.8c1.2667.53333 2.3667 1.26666 3.3 2.19999.9333.93334 1.6667 2.03334 2.2 3.30001.5333 1.2.8 2.5.8 3.9s-.2667 2.7333-.8 4c-.5333 1.2-1.2667 2.2667-2.2 3.2s-2.0333 1.6667-3.3 2.2c-1.2.5333-2.5.8-3.9.8s-2.7333-.2667-4-.8c-1.2-.5333-2.2667-1.2667-3.2-2.2s-1.6667-2-2.2-3.2c-.5333-1.2667-.8-2.6-.8-4zm31.6688 19.7h18.1003v6.3c4.933-4.7333 10.466-7.1 16.6-7.1 7.6 0 13.4 3.2 17.4 9.6 4.066-6.4667 9.866-9.7 17.4-9.7 2.4 0 4.666.3667 6.8 1.1 2.133.6667 3.966 1.7667 5.5 3.3 1.533 1.4667 2.733 3.4 3.6 5.8.933 2.4 1.4 5.3 1.4 8.7v33.3h-18.1v-25.3c0-2.6-.2-4.7333-.6-6.4-.334-1.6667-.867-2.9667-1.6-3.9-.667-.9333-1.467-1.5667-2.4-1.9-.934-.3333-1.934-.5-3-.5-5.8 0-8.7 4.2333-8.7 12.7v25.3h-18.1v-25.3c0-2.6-.167-4.7333-.5-6.4-.334-1.7333-.834-3.1-1.5-4.1-.6-1-1.4-1.6667-2.4-2-1-.4-2.167-.6-3.5-.6-1.134 0-2.2.1667-3.2.5s-1.9 1-2.7 2c-.734.9333-1.334 2.2667-1.8 4-.4 1.6667-.6 3.8667-.6 6.6v25.3h-18.1003zm141.8763 25.8c0-1.6-.3-3.1-.9-4.5-.533-1.4667-1.333-2.7333-2.4-3.8-1.066-1.0667-2.333-1.9-3.8-2.5-1.4-.6667-2.933-1-4.6-1-1.6 0-3.1.3-4.5.9s-2.633 1.4333-3.7 2.5c-1 1.0667-1.833 2.3333-2.5 3.8-.6 1.4-.9 2.9-.9 4.5s.3 3.1.9 4.5 1.434 2.6333 2.5 3.7c1.067 1 2.3 1.8333 3.7 2.5 1.467.6 3 .9 4.6.9s3.1-.3 4.5-.9 2.6-1.4333 3.6-2.5c1.067-1.0667 1.9-2.3 2.5-3.7.667-1.4 1-2.8667 1-4.4zm-22.8 51.1h-18.1v-76.9h18.1v5.7c3.867-4.8667 9.134-7.3 15.8-7.3 3.667 0 7.067.7333 10.2 2.2 3.2 1.4 5.967 3.3333 8.3 5.8 2.334 2.4667 4.134 5.3667 5.4 8.7 1.334 3.3333 2 6.9 2 10.7s-.666 7.3333-2 10.6c-1.266 3.2667-3.066 6.1333-5.4 8.6-2.266 2.4667-4.966 4.4-8.1 5.8-3.133 1.4-6.533 2.1-10.2 2.1-6.4 0-11.733-2.2-16-6.6zm70.117-108.60000429v83.00000429h-18.1v-83.00000429zm49.869 49.90000429c-.6-2.5333-1.833-4.5667-3.7-6.1s-4.133-2.3-6.8-2.3c-2.8 0-5.1.7333-6.9 2.2-1.733 1.4667-2.833 3.5333-3.3 6.2zm-21.2 10.5c0 7.8 3.667 11.7 11 11.7 3.933 0 6.9-1.6 8.9-4.8h17.5c-3.533 11.7333-12.367 17.6-26.5 17.6-4.333 0-8.3-.6333-11.9-1.9-3.6-1.3333-6.7-3.2-9.3-5.6-2.533-2.4-4.5-5.2667-5.9-8.6s-2.1-7.0667-2.1-11.2c0-4.2667.667-8.1 2-11.5 1.333-3.4667 3.233-6.4 5.7-8.8s5.433-4.2333 8.9-5.5c3.533-1.3333 7.5-2 11.9-2 4.333 0 8.233.6667 11.7 2 3.467 1.2667 6.4 3.1333 8.8 5.6s4.233 5.5 5.5 9.1c1.267 3.5333 1.9 7.5333 1.9 12v1.9z" fill="#21213b"/></svg>